<svg width="48" height="48" viewBox="0 0 48 48" fill="none" xmlns="http://www.w3.org/2000/svg">
<path d="M21.8 30.65L33.2 19.25L31.1 17.2L21.95 26.35L16.9 21.3L14.7 23.5L21.8 30.65ZM24 43.95C19.3333 42.7833 15.5 40.075 12.5 35.825C9.5 31.575 8 26.9166 8 21.85V9.94995L24 3.94995L40 9.94995V21.85C40 26.9166 38.5 31.575 35.5 35.825C32.5 40.075 28.6667 42.7833 24 43.95ZM24 40.85C27.8333 39.5833 30.9583 37.1916 33.375 33.675C35.7917 30.1583 37 26.2166 37 21.85V12.05L24 7.14995L11 12.05V21.85C11 26.2166 12.2083 30.1583 14.625 33.675C17.0417 37.1916 20.1667 39.5833 24 40.85Z" fill="#1D4DF4"/>
</svg>
