<svg width="48" height="48" viewBox="0 0 48 48" fill="none" xmlns="http://www.w3.org/2000/svg">
<path d="M6.59998 25.5V37V11V25.5ZM27.525 43C28.2083 43 28.7916 42.75 29.275 42.25C29.7583 41.75 30 41.1583 30 40.475C30 39.7917 29.7605 39.2083 29.2815 38.725C28.8021 38.2417 28.2083 38 27.5 38C26.8333 38 26.25 38.2395 25.75 38.7185C25.25 39.1978 25 39.7917 25 40.5C25 41.1667 25.25 41.75 25.75 42.25C26.25 42.75 26.8416 43 27.525 43ZM40.525 22C41.2083 22 41.7916 21.75 42.275 21.25C42.7583 20.75 43 20.1583 43 19.475C43 18.7917 42.7605 18.2083 42.2815 17.725C41.8021 17.2417 41.2083 17 40.5 17C39.8333 17 39.25 17.2395 38.75 17.7185C38.25 18.1978 38 18.7917 38 19.5C38 20.1667 38.25 20.75 38.75 21.25C39.25 21.75 39.8416 22 40.525 22ZM12 21H22V18H12V21ZM12 30H22V27H12V30ZM6.59998 40C5.79998 40 5.09998 39.7 4.49998 39.1C3.89998 38.5 3.59998 37.8 3.59998 37V11C3.59998 10.2 3.89998 9.5 4.49998 8.9C5.09998 8.3 5.79998 8 6.59998 8H41.4C42.2 8 42.9 8.3 43.5 8.9C44.1 9.5 44.4 10.2 44.4 11H6.59998V37H19V40H6.59998ZM27.494 46C25.9646 46 24.6666 45.4653 23.6 44.396C22.5333 43.3263 22 42.0277 22 40.5C22 39.2333 22.375 38.1167 23.125 37.15C23.875 36.1833 24.8333 35.5333 26 35.2V28.5H39V24.8C37.8333 24.4667 36.875 23.8167 36.125 22.85C35.375 21.8833 35 20.7667 35 19.5C35 17.9723 35.5353 16.6737 36.606 15.604C37.6766 14.5347 38.9766 14 40.506 14C42.0353 14 43.3333 14.5347 44.4 15.604C45.4666 16.6737 46 17.9723 46 19.5C46 20.7667 45.625 21.8833 44.875 22.85C44.125 23.8167 43.1666 24.4667 42 24.8V31.5H29V35.2C30.1666 35.5333 31.125 36.1833 31.875 37.15C32.625 38.1167 33 39.2333 33 40.5C33 42.0277 32.4646 43.3263 31.394 44.396C30.3233 45.4653 29.0233 46 27.494 46Z" fill="#1D4DF4"/>
</svg>
